<svg width="673" height="739" viewBox="0 0 673 739" fill="none" xmlns="http://www.w3.org/2000/svg">
<g id="spaceship-01" clip-path="url(#clip0_2_2)">
<g id="c1">
<path id="c1-head" d="M328.245 720.025C351.448 720.025 370.257 701.215 370.257 678.012C370.257 654.81 351.448 636 328.245 636C305.042 636 286.233 654.81 286.233 678.012C286.233 701.215 305.042 720.025 328.245 720.025Z" fill="#2F2E41"/>
<g id="c1-l-leg">
<path id="Vector" d="M311.065 706.047L299.226 725.611L310.145 732.219L321.984 712.655L311.065 706.047Z" fill="#2F2E41"/>
<path id="Vector_2" d="M311.808 729.802C311.854 727.6 307.13 725.717 301.257 725.596C295.384 725.475 290.586 727.162 290.541 729.364C290.496 731.567 295.22 733.45 301.093 733.571C306.965 733.692 311.763 732.004 311.808 729.802Z" fill="#2F2E41"/>
</g>
<g id="c1-r-leg">
<path id="Vector_3" d="M345.285 706.26L334.08 712.373L345.032 732.447L356.236 726.335L345.285 706.26Z" fill="#2F2E41"/>
<path id="Vector_4" d="M354.015 734.203C359.888 734.345 364.691 732.675 364.745 730.473C364.798 728.271 360.081 726.37 354.208 726.228C348.336 726.086 343.532 727.756 343.479 729.958C343.426 732.16 348.143 734.061 354.015 734.203Z" fill="#2F2E41"/>
</g>
<path id="c1-eye-o" d="M325.304 682.095C333.234 682.095 339.662 675.666 339.662 667.736C339.662 659.806 333.234 653.377 325.304 653.377C317.374 653.377 310.945 659.806 310.945 667.736C310.945 675.666 317.374 682.095 325.304 682.095Z" fill="white"/>
<path id="c1-eye-i" d="M336.158 670.158C338.02 668.297 338.009 665.269 336.135 663.394C334.26 661.52 331.232 661.509 329.37 663.37C327.509 665.232 327.52 668.26 329.394 670.135C331.269 672.009 334.297 672.02 336.158 670.158Z" fill="#3F3D56"/>
<path id="c1-r-arm" d="M385.604 700.011C388.367 697.639 384.481 688.58 376.925 679.777C369.368 670.975 361.002 665.762 358.238 668.134C355.475 670.507 359.361 679.566 366.917 688.368C374.474 697.171 382.84 702.384 385.604 700.011Z" fill="#2F2E41"/>
<path id="c1-l-arm" d="M289.69 688.368C297.247 679.566 301.133 670.507 298.369 668.134C295.606 665.762 287.24 670.975 279.683 679.777C272.126 688.58 268.24 697.639 271.004 700.011C273.767 702.384 282.133 697.171 289.69 688.368Z" fill="#2F2E41"/>
<path id="c1-mouth" d="M339.5 697C339.952 698.62 339.745 701.971 338.31 703.325C336.874 704.678 334.673 705.605 332.191 705.9C329.709 706.194 327.149 705.834 325.074 704.897C323 703.96 322 702.5 321.128 700.904L320 698.5C319.064 695.126 325.802 702.529 330.5 700.904C335.198 699.279 338.564 693.626 339.5 697Z" fill="white"/>
</g>
<g id="spaceship">
<g id="Vector_5">
<mask id="path-11-inside-1_2_2" fill="white">
<path d="M543.18 177.764C521.72 171.946 499.953 167.326 477.98 163.924C441.966 158.343 405.658 154.854 369.24 153.474C354.07 152.854 338.62 152.534 323 152.534C310.62 152.534 298.34 152.734 286.23 153.134C250.706 154.184 215.266 157.178 180.07 162.104C154.016 165.692 128.214 170.922 102.82 177.764C43.6098 194.134 11 216.074 11 239.534C11 262.994 43.6099 284.934 102.82 301.304C144.46 312.824 195.8 320.674 251.74 324.274C274.83 325.774 298.7 326.534 323 326.534C347.38 326.534 371.33 325.764 394.49 324.264C445.4 320.974 492.5 314.164 531.92 304.264C532.13 304.204 532.33 304.154 532.54 304.104C535.2 303.444 537.82 302.754 540.41 302.064C541.34 301.804 542.26 301.554 543.18 301.304C543.232 301.283 543.285 301.266 543.34 301.254C544.22 301.014 545.09 300.764 545.96 300.524C547.7 300.024 549.42 299.534 551.11 299.024C551.19 299.004 551.26 298.984 551.33 298.964C552.8 298.524 554.24 298.084 555.67 297.644C556.84 297.274 558 296.914 559.15 296.544C559.99 296.274 560.82 296.004 561.64 295.734C562.24 295.534 562.83 295.344 563.41 295.144C564.2 294.884 564.99 294.614 565.77 294.344C566.1 294.234 566.43 294.124 566.75 294.004C567.5 293.754 568.23 293.494 568.96 293.234C569.75 292.954 570.54 292.664 571.32 292.384C571.97 292.154 572.62 291.914 573.26 291.674C573.8 291.464 574.33 291.264 574.87 291.064C576.34 290.514 577.78 289.944 579.2 289.384C579.91 289.094 580.62 288.814 581.32 288.524C582.01 288.244 582.71 287.954 583.39 287.664C584.51 287.194 585.61 286.724 586.69 286.254C587.21 286.014 587.74 285.784 588.25 285.564C588.64 285.384 589.02 285.214 589.41 285.034C589.69 284.914 589.97 284.784 590.24 284.654C591.25 284.194 592.25 283.724 593.23 283.254C596.99 281.454 600.5 279.614 603.76 277.734C624.21 266.024 635 253.034 635 239.534C635 216.074 602.39 194.134 543.18 177.764ZM542.64 299.384C500.95 310.914 449.47 318.764 393.38 322.334C370.57 323.784 346.99 324.534 323 324.534C299.09 324.534 275.59 323.794 252.85 322.344C196.67 318.784 145.11 310.934 103.36 299.384C45.0899 283.264 13 262.014 13 239.534C13.0033 237.548 13.2519 235.569 13.7402 233.644C18.8398 213.364 50.21 194.384 103.36 179.684C128.562 172.895 154.166 167.695 180.02 164.114C215.428 159.16 251.082 156.156 286.82 155.114C298.74 154.724 310.8 154.531 323 154.534C338.41 154.534 353.65 154.844 368.63 155.444C405.26 156.812 441.779 160.318 478 165.944C499.783 169.331 521.363 173.918 542.64 179.684C595.78 194.384 627.14 213.354 632.25 233.624C632.746 235.555 632.998 237.54 633 239.534C633 262.014 600.91 283.264 542.64 299.384Z"/>
<path d="M542.64 299.384C500.95 310.914 449.47 318.764 393.38 322.334C370.57 323.784 346.99 324.534 323 324.534C299.09 324.534 275.59 323.794 252.85 322.344C196.67 318.784 145.11 310.934 103.36 299.384C45.0899 283.264 13 262.014 13 239.534C13.0033 237.548 13.2519 235.569 13.7402 233.644C18.8398 213.364 50.21 194.384 103.36 179.684C128.562 172.895 154.166 167.695 180.02 164.114C215.428 159.16 251.082 156.156 286.82 155.114C298.74 154.724 310.8 154.531 323 154.534C338.41 154.534 353.65 154.844 368.63 155.444C405.26 156.812 441.779 160.318 478 165.944C499.783 169.331 521.363 173.918 542.64 179.684C595.78 194.384 627.14 213.354 632.25 233.624C632.746 235.555 632.998 237.54 633 239.534C633 262.014 600.91 283.264 542.64 299.384Z"/>
</mask>
<path d="M543.18 177.764C521.72 171.946 499.953 167.326 477.98 163.924C441.966 158.343 405.658 154.854 369.24 153.474C354.07 152.854 338.62 152.534 323 152.534C310.62 152.534 298.34 152.734 286.23 153.134C250.706 154.184 215.266 157.178 180.07 162.104C154.016 165.692 128.214 170.922 102.82 177.764C43.6098 194.134 11 216.074 11 239.534C11 262.994 43.6099 284.934 102.82 301.304C144.46 312.824 195.8 320.674 251.74 324.274C274.83 325.774 298.7 326.534 323 326.534C347.38 326.534 371.33 325.764 394.49 324.264C445.4 320.974 492.5 314.164 531.92 304.264C532.13 304.204 532.33 304.154 532.54 304.104C535.2 303.444 537.82 302.754 540.41 302.064C541.34 301.804 542.26 301.554 543.18 301.304C543.232 301.283 543.285 301.266 543.34 301.254C544.22 301.014 545.09 300.764 545.96 300.524C547.7 300.024 549.42 299.534 551.11 299.024C551.19 299.004 551.26 298.984 551.33 298.964C552.8 298.524 554.24 298.084 555.67 297.644C556.84 297.274 558 296.914 559.15 296.544C559.99 296.274 560.82 296.004 561.64 295.734C562.24 295.534 562.83 295.344 563.41 295.144C564.2 294.884 564.99 294.614 565.77 294.344C566.1 294.234 566.43 294.124 566.75 294.004C567.5 293.754 568.23 293.494 568.96 293.234C569.75 292.954 570.54 292.664 571.32 292.384C571.97 292.154 572.62 291.914 573.26 291.674C573.8 291.464 574.33 291.264 574.87 291.064C576.34 290.514 577.78 289.944 579.2 289.384C579.91 289.094 580.62 288.814 581.32 288.524C582.01 288.244 582.71 287.954 583.39 287.664C584.51 287.194 585.61 286.724 586.69 286.254C587.21 286.014 587.74 285.784 588.25 285.564C588.64 285.384 589.02 285.214 589.41 285.034C589.69 284.914 589.97 284.784 590.24 284.654C591.25 284.194 592.25 283.724 593.23 283.254C596.99 281.454 600.5 279.614 603.76 277.734C624.21 266.024 635 253.034 635 239.534C635 216.074 602.39 194.134 543.18 177.764ZM542.64 299.384C500.95 310.914 449.47 318.764 393.38 322.334C370.57 323.784 346.99 324.534 323 324.534C299.09 324.534 275.59 323.794 252.85 322.344C196.67 318.784 145.11 310.934 103.36 299.384C45.0899 283.264 13 262.014 13 239.534C13.0033 237.548 13.2519 235.569 13.7402 233.644C18.8398 213.364 50.21 194.384 103.36 179.684C128.562 172.895 154.166 167.695 180.02 164.114C215.428 159.16 251.082 156.156 286.82 155.114C298.74 154.724 310.8 154.531 323 154.534C338.41 154.534 353.65 154.844 368.63 155.444C405.26 156.812 441.779 160.318 478 165.944C499.783 169.331 521.363 173.918 542.64 179.684C595.78 194.384 627.14 213.354 632.25 233.624C632.746 235.555 632.998 237.54 633 239.534C633 262.014 600.91 283.264 542.64 299.384Z" fill="white"/>
<path d="M542.64 299.384C500.95 310.914 449.47 318.764 393.38 322.334C370.57 323.784 346.99 324.534 323 324.534C299.09 324.534 275.59 323.794 252.85 322.344C196.67 318.784 145.11 310.934 103.36 299.384C45.0899 283.264 13 262.014 13 239.534C13.0033 237.548 13.2519 235.569 13.7402 233.644C18.8398 213.364 50.21 194.384 103.36 179.684C128.562 172.895 154.166 167.695 180.02 164.114C215.428 159.16 251.082 156.156 286.82 155.114C298.74 154.724 310.8 154.531 323 154.534C338.41 154.534 353.65 154.844 368.63 155.444C405.26 156.812 441.779 160.318 478 165.944C499.783 169.331 521.363 173.918 542.64 179.684C595.78 194.384 627.14 213.354 632.25 233.624C632.746 235.555 632.998 237.54 633 239.534C633 262.014 600.91 283.264 542.64 299.384Z" fill="white"/>
<path d="M543.18 177.764C521.72 171.946 499.953 167.326 477.98 163.924C441.966 158.343 405.658 154.854 369.24 153.474C354.07 152.854 338.62 152.534 323 152.534C310.62 152.534 298.34 152.734 286.23 153.134C250.706 154.184 215.266 157.178 180.07 162.104C154.016 165.692 128.214 170.922 102.82 177.764C43.6098 194.134 11 216.074 11 239.534C11 262.994 43.6099 284.934 102.82 301.304C144.46 312.824 195.8 320.674 251.74 324.274C274.83 325.774 298.7 326.534 323 326.534C347.38 326.534 371.33 325.764 394.49 324.264C445.4 320.974 492.5 314.164 531.92 304.264C532.13 304.204 532.33 304.154 532.54 304.104C535.2 303.444 537.82 302.754 540.41 302.064C541.34 301.804 542.26 301.554 543.18 301.304C543.232 301.283 543.285 301.266 543.34 301.254C544.22 301.014 545.09 300.764 545.96 300.524C547.7 300.024 549.42 299.534 551.11 299.024C551.19 299.004 551.26 298.984 551.33 298.964C552.8 298.524 554.24 298.084 555.67 297.644C556.84 297.274 558 296.914 559.15 296.544C559.99 296.274 560.82 296.004 561.64 295.734C562.24 295.534 562.83 295.344 563.41 295.144C564.2 294.884 564.99 294.614 565.77 294.344C566.1 294.234 566.43 294.124 566.75 294.004C567.5 293.754 568.23 293.494 568.96 293.234C569.75 292.954 570.54 292.664 571.32 292.384C571.97 292.154 572.62 291.914 573.26 291.674C573.8 291.464 574.33 291.264 574.87 291.064C576.34 290.514 577.78 289.944 579.2 289.384C579.91 289.094 580.62 288.814 581.32 288.524C582.01 288.244 582.71 287.954 583.39 287.664C584.51 287.194 585.61 286.724 586.69 286.254C587.21 286.014 587.74 285.784 588.25 285.564C588.64 285.384 589.02 285.214 589.41 285.034C589.69 284.914 589.97 284.784 590.24 284.654C591.25 284.194 592.25 283.724 593.23 283.254C596.99 281.454 600.5 279.614 603.76 277.734C624.21 266.024 635 253.034 635 239.534C635 216.074 602.39 194.134 543.18 177.764ZM542.64 299.384C500.95 310.914 449.47 318.764 393.38 322.334C370.57 323.784 346.99 324.534 323 324.534C299.09 324.534 275.59 323.794 252.85 322.344C196.67 318.784 145.11 310.934 103.36 299.384C45.0899 283.264 13 262.014 13 239.534C13.0033 237.548 13.2519 235.569 13.7402 233.644C18.8398 213.364 50.21 194.384 103.36 179.684C128.562 172.895 154.166 167.695 180.02 164.114C215.428 159.16 251.082 156.156 286.82 155.114C298.74 154.724 310.8 154.531 323 154.534C338.41 154.534 353.65 154.844 368.63 155.444C405.26 156.812 441.779 160.318 478 165.944C499.783 169.331 521.363 173.918 542.64 179.684C595.78 194.384 627.14 213.354 632.25 233.624C632.746 235.555 632.998 237.54 633 239.534C633 262.014 600.91 283.264 542.64 299.384Z" stroke="black" stroke-width="2" mask="url(#path-11-inside-1_2_2)"/>
<path d="M542.64 299.384C500.95 310.914 449.47 318.764 393.38 322.334C370.57 323.784 346.99 324.534 323 324.534C299.09 324.534 275.59 323.794 252.85 322.344C196.67 318.784 145.11 310.934 103.36 299.384C45.0899 283.264 13 262.014 13 239.534C13.0033 237.548 13.2519 235.569 13.7402 233.644C18.8398 213.364 50.21 194.384 103.36 179.684C128.562 172.895 154.166 167.695 180.02 164.114C215.428 159.16 251.082 156.156 286.82 155.114C298.74 154.724 310.8 154.531 323 154.534C338.41 154.534 353.65 154.844 368.63 155.444C405.26 156.812 441.779 160.318 478 165.944C499.783 169.331 521.363 173.918 542.64 179.684C595.78 194.384 627.14 213.354 632.25 233.624C632.746 235.555 632.998 237.54 633 239.534C633 262.014 600.91 283.264 542.64 299.384Z" stroke="black" stroke-width="2" mask="url(#path-11-inside-1_2_2)"/>
</g>
<path id="Vector_6" d="M476.758 227.41C430.138 219.97 403 216.87 321.758 216C240.515 215.13 178.778 225.58 178.778 225.58C178.778 225.58 178.798 224.24 178.827 223.57C179.984 184.679 196.307 147.784 224.307 120.77C252.308 93.7554 289.764 78.7651 328.671 79.0028C367.578 79.2405 404.849 94.6873 432.517 122.042C460.185 149.396 476.056 186.488 476.738 225.39C476.748 226.07 476.758 226.74 476.758 227.41Z" fill="#6C63FF"/>
<path id="Vector_7" d="M634.43 240.444C634.43 253.804 623.42 266.444 603.76 277.734C600.49 279.614 596.97 281.454 593.23 283.254C592.25 283.724 591.25 284.194 590.24 284.654C589.97 284.784 589.69 284.914 589.41 285.034C589.02 285.214 588.64 285.384 588.25 285.564C587.74 285.784 587.21 286.014 586.69 286.254C585.61 286.724 584.51 287.194 583.39 287.664C582.71 287.954 582.01 288.244 581.32 288.524C580.62 288.814 579.91 289.094 579.2 289.384C577.78 289.944 576.34 290.514 574.87 291.064C574.33 291.264 573.8 291.464 573.26 291.674C572.62 291.914 571.97 292.154 571.32 292.384C570.54 292.664 569.75 292.954 568.96 293.234C568.23 293.494 567.5 293.754 566.75 294.004C566.43 294.124 566.1 294.234 565.77 294.344C564.99 294.614 564.2 294.884 563.41 295.144C562.83 295.344 562.24 295.534 561.64 295.734C560.82 296.004 559.99 296.274 559.15 296.544C558 296.914 556.84 297.274 555.67 297.644C554.24 298.084 552.8 298.524 551.33 298.964C551.26 298.984 551.19 299.004 551.11 299.024C549.42 299.534 547.7 300.024 545.96 300.524C545.09 300.764 544.22 301.014 543.34 301.254C543.285 301.266 543.232 301.283 543.18 301.304C542.26 301.554 541.34 301.804 540.41 302.064C537.83 302.744 535.2 303.434 532.54 304.104C532.33 304.154 532.13 304.204 531.92 304.264C493.57 313.844 446.52 320.824 394.45 324.194C371.64 325.664 347.86 326.444 323.43 326.444C298.78 326.444 274.8 325.654 251.81 324.154C114.57 315.204 12.4301 281.124 12.4301 240.444C12.4409 237.969 12.8182 235.509 13.5497 233.144C13.6098 233.314 13.6699 233.474 13.7402 233.644C28.0097 271.124 129.28 301.414 260.68 308.804C280.81 309.944 301.66 310.534 323 310.534C344.43 310.534 365.36 309.934 385.57 308.794C516.86 301.374 618.03 271.074 632.25 233.624C632.49 233.024 632.7 232.424 632.88 231.824C633.894 234.585 634.418 237.502 634.43 240.444V240.444Z" fill="#3F3D56"/>
<path id="Vector_8" d="M102.669 229.68C86.0266 229.68 68.3386 226.099 68.3386 219.463C68.3386 212.827 86.0266 209.246 102.669 209.246C119.312 209.246 137 212.827 137 219.463C137 226.099 119.312 229.68 102.669 229.68ZM102.669 211.246C83.6163 211.246 70.3386 215.577 70.3386 219.463C70.3386 223.349 83.6163 227.68 102.669 227.68C121.722 227.68 135 223.349 135 219.463C135 215.577 121.722 211.246 102.669 211.246V211.246Z" fill="#3F3D56"/>
<path id="Vector_9" d="M173.669 276.68C157.027 276.68 139.339 273.099 139.339 266.463C139.339 259.827 157.027 256.246 173.669 256.246C190.312 256.246 208 259.827 208 266.463C208 273.099 190.312 276.68 173.669 276.68ZM173.669 258.246C154.616 258.246 141.339 262.577 141.339 266.463C141.339 270.349 154.616 274.68 173.669 274.68C192.722 274.68 206 270.349 206 266.463C206 262.577 192.722 258.246 173.669 258.246V258.246Z" fill="#3F3D56"/>
<path id="Vector_10" d="M542.669 229.68C526.027 229.68 508.339 226.099 508.339 219.463C508.339 212.827 526.027 209.246 542.669 209.246C559.312 209.246 577 212.827 577 219.463C577 226.099 559.312 229.68 542.669 229.68ZM542.669 211.246C523.616 211.246 510.339 215.577 510.339 219.463C510.339 223.349 523.616 227.68 542.669 227.68C561.722 227.68 575 223.349 575 219.463C575 215.577 561.722 211.246 542.669 211.246V211.246Z" fill="#3F3D56"/>
<path id="Vector_11" d="M471.669 276.68C455.027 276.68 437.339 273.099 437.339 266.463C437.339 259.827 455.027 256.246 471.669 256.246C488.312 256.246 506 259.827 506 266.463C506 273.099 488.312 276.68 471.669 276.68ZM471.669 258.246C452.616 258.246 439.339 262.577 439.339 266.463C439.339 270.349 452.616 274.68 471.669 274.68C490.722 274.68 504 270.349 504 266.463C504 262.577 490.722 258.246 471.669 258.246V258.246Z" fill="#3F3D56"/>
<path id="Vector_12" d="M322.669 298.68C306.027 298.68 288.339 295.099 288.339 288.463C288.339 281.827 306.027 278.246 322.669 278.246C339.312 278.246 357 281.827 357 288.463C357 295.099 339.312 298.68 322.669 298.68ZM322.669 280.246C303.616 280.246 290.339 284.577 290.339 288.463C290.339 292.349 303.616 296.68 322.669 296.68C341.722 296.68 355 292.349 355 288.463C355 284.577 341.722 280.246 322.669 280.246V280.246Z" fill="#3F3D56"/>
</g>
<g id="rays">
<path id="Vector_13" d="M266 505C265.47 505 264.961 504.789 264.586 504.414C264.211 504.039 264 503.53 264 503V385C264 384.47 264.211 383.961 264.586 383.586C264.961 383.211 265.47 383 266 383C266.53 383 267.039 383.211 267.414 383.586C267.789 383.961 268 384.47 268 385V503C268 503.53 267.789 504.039 267.414 504.414C267.039 504.789 266.53 505 266 505Z" fill="#CCCCCC"/>
<path id="Vector_14" d="M236 611C235.47 611 234.961 610.789 234.586 610.414C234.211 610.039 234 609.53 234 609V523C234 522.47 234.211 521.961 234.586 521.586C234.961 521.211 235.47 521 236 521C236.53 521 237.039 521.211 237.414 521.586C237.789 521.961 238 522.47 238 523V609C238 609.53 237.789 610.039 237.414 610.414C237.039 610.789 236.53 611 236 611V611Z" fill="#CCCCCC"/>
<path id="Vector_15" d="M313 540C312.47 540 311.961 539.789 311.586 539.414C311.211 539.039 311 538.53 311 538V420C311 419.47 311.211 418.961 311.586 418.586C311.961 418.211 312.47 418 313 418C313.53 418 314.039 418.211 314.414 418.586C314.789 418.961 315 419.47 315 420V538C315 538.53 314.789 539.039 314.414 539.414C314.039 539.789 313.53 540 313 540Z" fill="#CCCCCC"/>
<path id="Vector_16" d="M284 625C283.47 625 282.961 624.789 282.586 624.414C282.211 624.039 282 623.53 282 623V575C282 574.47 282.211 573.961 282.586 573.586C282.961 573.211 283.47 573 284 573C284.53 573 285.039 573.211 285.414 573.586C285.789 573.961 286 574.47 286 575V623C286 623.53 285.789 624.039 285.414 624.414C285.039 624.789 284.53 625 284 625V625Z" fill="#CCCCCC"/>
<path id="Vector_17" d="M325 379C324.47 379 323.961 378.789 323.586 378.414C323.211 378.039 323 377.53 323 377V329C323 328.47 323.211 327.961 323.586 327.586C323.961 327.211 324.47 327 325 327C325.53 327 326.039 327.211 326.414 327.586C326.789 327.961 327 328.47 327 329V377C327 377.53 326.789 378.039 326.414 378.414C326.039 378.789 325.53 379 325 379V379Z" fill="#CCCCCC"/>
<path id="Vector_18" d="M225 400C224.47 400 223.961 399.789 223.586 399.414C223.211 399.039 223 398.53 223 398V350C223 349.47 223.211 348.961 223.586 348.586C223.961 348.211 224.47 348 225 348C225.53 348 226.039 348.211 226.414 348.586C226.789 348.961 227 349.47 227 350V398C227 398.53 226.789 399.039 226.414 399.414C226.039 399.789 225.53 400 225 400V400Z" fill="#CCCCCC"/>
<path id="Vector_19" d="M399 405C398.47 405 397.961 404.789 397.586 404.414C397.211 404.039 397 403.53 397 403V355C397 354.47 397.211 353.961 397.586 353.586C397.961 353.211 398.47 353 399 353C399.53 353 400.039 353.211 400.414 353.586C400.789 353.961 401 354.47 401 355V403C401 403.53 400.789 404.039 400.414 404.414C400.039 404.789 399.53 405 399 405Z" fill="#CCCCCC"/>
<path id="Vector_20" d="M395 555C394.47 555 393.961 554.789 393.586 554.414C393.211 554.039 393 553.53 393 553V495C393 494.47 393.211 493.961 393.586 493.586C393.961 493.211 394.47 493 395 493C395.53 493 396.039 493.211 396.414 493.586C396.789 493.961 397 494.47 397 495V553C397 553.53 396.789 554.039 396.414 554.414C396.039 554.789 395.53 555 395 555Z" fill="#CCCCCC"/>
<path id="Vector_21" d="M355 606C354.47 606 353.961 605.789 353.586 605.414C353.211 605.039 353 604.53 353 604V518C353 517.47 353.211 516.961 353.586 516.586C353.961 516.211 354.47 516 355 516C355.53 516 356.039 516.211 356.414 516.586C356.789 516.961 357 517.47 357 518V604C357 604.53 356.789 605.039 356.414 605.414C356.039 605.789 355.53 606 355 606Z" fill="#CCCCCC"/>
<path id="Vector_22" d="M363 459C362.47 459 361.961 458.789 361.586 458.414C361.211 458.039 361 457.53 361 457V339C361 338.47 361.211 337.961 361.586 337.586C361.961 337.211 362.47 337 363 337C363.53 337 364.039 337.211 364.414 337.586C364.789 337.961 365 338.47 365 339V457C365 457.53 364.789 458.039 364.414 458.414C364.039 458.789 363.53 459 363 459Z" fill="#CCCCCC"/>
</g>
<g id="c2">
<path id="c2-r-arm" d="M608.492 693.465C611.355 691.068 607.486 681.733 599.852 672.615C592.217 663.496 583.707 658.047 580.845 660.444C577.982 662.84 581.851 672.175 589.485 681.294C597.12 690.413 605.63 695.862 608.492 693.465Z" fill="#2F2E41"/>
<path id="c2-head" d="M589.719 683.095C597.24 660.531 585.045 636.141 562.48 628.619C539.916 621.097 515.526 633.292 508.004 655.857C500.482 678.422 512.677 702.812 535.242 710.334C557.807 717.855 582.197 705.66 589.719 683.095Z" fill="#2F2E41"/>
<g id="c2-r-leg">
<path id="Vector_23" d="M567.09 703.276H554.006V726.718H567.09V703.276Z" fill="#2F2E41"/>
<path id="Vector_24" d="M556.187 731.079C562.209 731.079 567.09 729.248 567.09 726.99C567.09 724.732 562.209 722.902 556.187 722.902C550.165 722.902 545.284 724.732 545.284 726.99C545.284 729.248 550.165 731.079 556.187 731.079Z" fill="#2F2E41"/>
</g>
<g id="c2-l-leg">
<path id="Vector_25" d="M540.923 703.276H527.839V726.718H540.923V703.276Z" fill="#2F2E41"/>
<path id="Vector_26" d="M530.02 730.534C536.041 730.534 540.923 728.703 540.923 726.445C540.923 724.187 536.041 722.356 530.02 722.356C523.998 722.356 519.116 724.187 519.116 726.445C519.116 728.703 523.998 730.534 530.02 730.534Z" fill="#2F2E41"/>
</g>
<path id="c2-l-arm" d="M518.051 663.123C515.615 660.294 506.334 664.289 497.32 672.048C488.307 679.806 482.974 688.389 485.41 691.219C487.846 694.049 497.127 690.053 506.141 682.295C515.154 674.536 520.487 665.953 518.051 663.123Z" fill="#2F2E41"/>
<path id="c2-eye-o" d="M542.423 674.748C550.353 674.748 556.781 668.319 556.781 660.389C556.781 652.459 550.353 646.03 542.423 646.03C534.493 646.03 528.064 652.459 528.064 660.389C528.064 668.319 534.493 674.748 542.423 674.748Z" fill="white"/>
<path id="c2-eye-i" d="M534.786 665.572C537.43 665.572 539.572 663.43 539.572 660.786C539.572 658.143 537.43 656 534.786 656C532.143 656 530 658.143 530 660.786C530 663.43 532.143 665.572 534.786 665.572Z" fill="#3F3D56"/>
<path id="c2-mouth" d="M542.299 696.368C545.613 696.368 548.299 693.682 548.299 690.368C548.299 687.054 545.613 692.5 542.299 692.5C538.985 692.5 536.299 687.054 536.299 690.368C536.299 693.682 538.985 696.368 542.299 696.368Z" fill="white"/>
</g>
</g>
<defs>
<clipPath id="clip0_2_2">
<rect width="672.531" height="738.394" fill="white"/>
</clipPath>
</defs>
</svg>
